<svg xmlns="http://www.w3.org/2000/svg" xmlns:xlink="http://www.w3.org/1999/xlink" width="40.04296875" height="80.4375">
  <path fill="white" stroke="black" d="M19.76 13.43L19.76 13.43Q27.25 13.43 31.46 18.77L31.46 18.77Q36.49 25.10 36.49 39.76L36.49 39.76Q36.49 54.39 31.43 60.79L31.43 60.79Q27.25 66.06 19.76 66.06L19.76 66.06Q12.23 66.06 7.63 60.28Q3.02 54.49 3.02 39.66L3.02 39.66Q3.02 25.10 8.09 18.70L8.09 18.70Q12.27 13.43 19.76 13.43ZM19.76 21.62L19.76 21.62Q17.96 21.62 16.56 22.76Q15.15 23.91 14.38 26.86L14.38 26.86Q13.36 30.69 13.36 39.76L13.36 39.76Q13.36 48.83 14.27 52.22Q15.19 55.62 16.58 56.74Q17.96 57.87 19.76 57.87L19.76 57.87Q21.55 57.87 22.96 56.72Q24.36 55.58 25.14 52.63L25.14 52.63Q26.16 48.83 26.16 39.76L26.16 39.76Q26.16 30.69 25.24 27.30Q24.33 23.91 22.94 22.76Q21.55 21.62 19.76 21.62Z" />
</svg>