<svg xmlns="http://www.w3.org/2000/svg" xmlns:xlink="http://www.w3.org/1999/xlink" width="40.04296875" height="80.4375">
  <path fill="white" stroke="black" d="M16.80 56.00L36.42 56.00L36.42 65.18L1.79 65.18Q2.36 59.98 
  5.17 55.32Q7.98 50.66 16.28 42.96L16.28 42.96Q22.96 36.74 24.47 34.52L24.47 34.52Q26.51 31.46 26.51 28.48L26.51 28.48Q26.51 25.17 24.73 23.40Q22.96 21.62 19.83 21.62L19.83 21.62Q16.73 21.62 14.91 23.48Q13.08 25.35 12.80 29.67L12.80 29.67L2.95 28.69Q3.83 20.53 8.47 16.98Q13.11 13.43 20.07 13.43L20.07 13.43Q27.70 13.43 32.06 17.54Q36.42 21.66 36.42 27.77L36.42 27.77Q36.42 31.25 35.17 34.40Q33.93 37.55 31.22 40.99L31.22 40.99Q29.43 43.28 24.75 47.57Q20.07 51.86 18.83 53.26Q17.58 54.67 16.80 56.00L16.80 56.00Z" />
</svg>