<svg xmlns="http://www.w3.org/2000/svg" xmlns:xlink="http://www.w3.org/1999/xlink" width="40.04296875" height="80.4375">
  <path fill="white" stroke="black" d="M2.71 51.50L2.71 51.50L12.27 50.34Q12.73 54 14.73 55.93Q16.73 57.87 19.58 57.87L19.58 57.87Q22.64 57.87 24.73 55.55Q26.82 53.23 26.82 49.29L26.82 49.29Q26.82 45.56 24.82 43.38Q22.82 41.20 19.93 41.20L19.93 41.20Q18.04 41.20 15.40 41.94L15.40 41.94L16.49 33.89Q20.50 34.00 22.61 32.15Q24.71 30.30 24.71 27.25L24.71 27.25Q24.71 24.64 23.17 23.10Q21.62 21.55 19.05 21.55L19.05 21.55Q16.52 21.55 14.73 23.31Q12.94 25.07 12.55 28.44L12.55 28.44L3.45 26.89Q4.39 22.22 6.31 19.42Q8.23 16.63 11.65 15.03Q15.08 13.43 19.34 13.43L19.34 13.43Q26.61 13.43 31.01 18.07L31.01 18.07Q34.63 21.87 34.63 26.65L34.63 26.65Q34.63 33.43 27.21 37.48L27.21 37.48Q31.64 38.43 34.29 41.73Q36.95 45.04 36.95 49.71L36.95 49.71Q36.95 56.50 31.99 61.28Q27.04 66.06 19.65 66.06L19.65 66.06Q12.66 66.06 8.05 62.03Q3.45 58.01 2.71 51.50Z" />
</svg>