<svg xmlns="http://www.w3.org/2000/svg" xmlns:xlink="http://www.w3.org/1999/xlink" width="40.04296875" height="80.4375" viewBox="0 0 40 80">
  <path fill="white" stroke="black" d="M3.20 51.93L3.20 51.93L13.04 50.91Q13.46 54.25 15.54 56.20Q17.61 58.15 20.32 58.15L20.32 58.15Q23.41 58.15 25.56 55.63Q27.70 53.12 27.70 48.06L27.70 48.06Q27.70 43.31 
  25.58 40.94Q23.45 38.57 20.04 38.57L20.04 38.57Q15.79 38.57 12.41 42.33L12.41 42.33L4.39 41.17L9.46 14.34L35.58 14.34L35.58 23.59L16.95 23.59L15.40 32.34Q18.70 30.69 22.15 30.69L22.15 30.69Q28.72 30.69 33.29 35.47Q37.86 40.25 37.86 47.88L37.86 47.88Q37.86 54.25 34.17 59.24L34.17 59.24Q29.14 66.06 20.21 66.06L20.21 66.06Q13.08 66.06 8.58 62.23Q4.08 58.39 3.20 51.93Z" />
</svg>