<svg xmlns="http://www.w3.org/2000/svg" xmlns:xlink="http://www.w3.org/1999/xlink" width="37.818359375" height="75.96875" viewBox="0 0 38 82">
  <path fill="white" stroke="black" d="M34.50 24.80L34.50 24.80L25.47 25.80Q25.13 23.01 23.74 21.68Q22.35 20.35 20.12 20.35L20.12 20.35Q17.17 20.35 15.12 23.01Q13.08 25.67 12.55 34.07L12.55 34.07Q16.04 29.95 21.22 29.95L21.22 29.95Q27.06 29.95 31.23 34.40Q35.39 38.85 35.39 45.89L35.39 45.89Q35.39 53.36 31.01 57.87Q26.63 62.39 19.76 62.39L19.76 62.39Q12.38 62.39 7.64 56.66Q2.89 50.93 2.89 37.88L2.89 37.88Q2.89 24.50 7.84 18.59Q12.78 12.68 20.69 12.68L20.69 12.68Q26.23 12.68 29.87 15.79Q33.50 18.89 34.50 24.80ZM13.35 45.16L13.35 45.16Q13.35 49.71 15.44 52.18Q17.53 54.65 20.22 54.65L20.22 54.65Q22.81 54.65 24.54 52.63Q26.26 50.60 26.26 45.99L26.26 45.99Q26.26 41.24 24.40 39.03Q22.54 36.82 19.76 36.82L19.76 36.82Q17.07 36.82 15.21 38.93Q13.35 41.04 13.35 45.16Z" />
  <rect fill="white" stroke="black" x="2" y="63" width="36" height="6" />
</svg>