<svg xmlns="http://www.w3.org/2000/svg" xmlns:xlink="http://www.w3.org/1999/xlink" width="40.04296875" height="80.4375" viewBox="0 0 40 80">
  <path fill="white" stroke="black" d="M11.53 37.37L11.53 37.37Q7.70 35.75 5.96 32.92Q4.22 30.09 4.22 26.72L4.22 26.72Q4.22 20.95 8.24 17.19Q12.27 13.43 19.69 13.43L19.69 13.43Q27.04 13.43 31.10 17.19Q35.16 20.95 35.16 26.72L35.16 26.72Q35.16 30.30 33.29 33.10Q31.43 35.89 28.05 37.37L28.05 37.37Q32.34 39.09 34.58 42.40Q36.81 45.70 36.81 50.03L36.81 50.03Q36.81 57.16 32.26 61.63Q27.70 66.09 20.14 66.09L20.14 66.09Q13.11 66.09 8.44 62.40L8.44 62.40Q2.92 58.04 2.92 50.45L2.92 50.45Q2.92 46.27 4.99 42.77Q7.07 39.27 11.53 37.37ZM13.57 27.42L13.57 27.42Q13.57 30.38 15.24 32.03Q16.91 33.68 19.69 33.68L19.69 33.68Q22.50 33.68 24.19 32.01Q25.88 30.34 25.88 27.39L25.88 27.39Q25.88 24.61 24.21 22.94Q22.54 21.27 19.79 21.27L19.79 21.27Q16.95 21.27 
  15.26 22.96Q13.57 24.64 13.57 27.42ZM12.66 49.50L12.66 49.50Q12.66 53.58 14.75 55.86Q16.84 58.15 19.97 58.15L19.97 58.15Q23.03 58.15 25.03 55.95Q27.04 53.75 27.04 49.61L27.04 49.61Q27.04 45.98 25.00 43.79Q22.96 41.59 19.83 41.59L19.83 41.59Q16.21 41.59 14.43 44.09Q12.66 46.58 12.66 49.50Z" />
</svg>