<svg xmlns="http://www.w3.org/2000/svg" xmlns:xlink="http://www.w3.org/1999/xlink" width="37.818359375" height="75.96875">
  <path fill="white" stroke="black" d="M3.09 50.30L3.09 50.30L12.12 49.31Q12.45 52.06 13.85 53.39Q15.24 54.72 17.53 54.72L17.53 54.72Q20.42 54.72 22.45 52.06Q24.47 49.41 25.04 41.04L25.04 41.04Q21.52 45.12 16.24 45.12L16.24 45.12Q10.49 45.12 6.33 40.69Q2.16 36.26 2.16 29.15L2.16 29.15Q2.16 21.75 6.56 17.22Q10.96 12.68 17.76 12.68L17.76 12.68Q25.17 12.68 29.92 18.41Q34.66 24.14 34.66 37.25L34.66 37.25Q34.66 50.60 29.72 56.51Q24.77 62.42 16.83 62.42L16.83 62.42Q11.12 62.42 7.60 59.38Q4.08 56.35 3.09 50.30ZM24.21 29.92L24.21 
  29.92Q24.21 25.40 22.13 22.91Q20.05 20.42 17.33 20.42L17.33 20.42Q14.74 20.42 13.03 22.46Q11.32 24.50 11.32 
  29.15L11.32 29.15Q11.32 33.87 13.18 36.08Q15.04 38.28 17.83 38.28L17.83 38.28Q20.52 38.28 22.36 36.16Q24.21 
  34.03 24.21 29.92Z" />
  <rect fill="white" stroke="black" x="2" y="63" width="36" height="6" />
</svg>