<svg xmlns="http://www.w3.org/2000/svg" xmlns:xlink="http://www.w3.org/1999/xlink" width="43.98046875" height="80.4375">
  <path fill="white" stroke="black" d="M26.40 51.89L26.40 51.89L17.44 51.89Q17.40 49.96 17.40 49.54L17.40 49.54Q17.40 45.18 18.84 42.36Q20.29 39.55 24.61 36.04Q28.93 32.52 29.78 31.43L29.78 31.43Q31.08 29.71 31.08 27.63L31.08 27.63Q31.08 24.75 28.78 22.69Q26.47 20.64 22.57 20.64L22.57 20.64Q18.81 20.64 16.28 22.78Q13.75 24.93 12.80 29.32L12.80 29.32L3.73 28.20Q4.11 21.90 9.09 17.51Q14.06 13.11 22.15 13.11L22.15 13.11Q30.66 13.11 35.68 17.56Q40.71 22.01 40.71 27.91L40.71 27.91Q40.71 31.18 38.87 34.10Q37.02 37.02 30.97 42.05L30.97 42.05Q27.84 44.65 27.09 46.23Q26.33 47.81 26.40 51.89ZM27.32 65.18L17.44 65.18L17.44 55.30L27.32 55.30L27.32 65.18Z" />
</svg>