<svg xmlns="http://www.w3.org/2000/svg" xmlns:xlink="http://www.w3.org/1999/xlink" width="68.408203125" height="67.03125" viewBox="0 0 69 68">
  <path fill="white" stroke="black" d="M21.24 48.13L13.74 48.13L13.74 36.97L2.49 36.97L2.49 29.27L13.74 29.27L13.74 18.11L21.24 18.11L21.24 29.27L32.52 29.27L32.52 36.97L21.24 36.97L21.24 48.13ZM61.70 54.32L53.73 54.32L53.73 45.67L36.15 45.67L36.15 38.47L54.79 11.19L61.70 11.19L61.70 38.44L67.03 38.44L67.03 45.67L61.70 45.67L61.70 54.32ZM43.86 38.44L53.73 38.44L53.73 23.76L43.86 38.44Z" />
</svg>