<svg xmlns="http://www.w3.org/2000/svg" xmlns:xlink="http://www.w3.org/1999/xlink" width="68.408203125" height="67.03125" viewBox="0 0 69 68">
  <path fill="white" stroke="black" d="M21.24 48.13L13.74 48.13L13.74 36.97L2.49 36.97L2.49 29.27L13.74 29.27L13.74 18.11L21.24 18.11L21.24 29.27L32.52 29.27L32.52 36.97L21.24 36.97L21.24 48.13ZM49.04 46.67L65.39 46.67L65.39 54.32L36.53 54.32Q37.00 49.98 39.35 46.10Q41.69 42.22 48.60 35.80L48.60 35.80Q54.17 30.62 55.43 28.77L55.43 28.77Q57.13 26.22 57.13 23.73L57.13 23.73Q57.13 20.98 55.65 19.50Q54.17 18.02 51.56 18.02L51.56 18.02Q48.98 18.02 47.46 19.57Q45.94 21.12 45.70 24.73L45.70 24.73L37.50 23.91Q38.23 17.11 42.10 14.15Q45.97 11.19 51.77 11.19L51.77 11.19Q58.13 11.19 61.76 14.62Q65.39 18.05 65.39 23.14L65.39 23.14Q65.39 26.04 64.35 28.67Q63.31 31.29 61.05 34.16L61.05 34.16Q59.56 36.06 55.66 39.64Q51.77 43.21 50.73 44.38Q49.69 45.56 49.04 46.67L49.04 46.67Z" />
</svg>