<svg xmlns="http://www.w3.org/2000/svg" xmlns:xlink="http://www.w3.org/1999/xlink" width="160" height="110" viewBox="0 0 160 110">
  <defs>
    <path id="text" d="M5.17 54.13L5.17 26.64L15.57 26.64L15.57 54.55Q15.57 61.20 15.96 63.17L15.96 63.17Q16.63 66.33 19.14 68.25Q21.66 70.16 26.02 70.16L26.02 70.16Q30.45 70.16 32.70 68.35Q34.95 66.54 35.40 63.91Q35.86 61.27 35.86 55.15L35.86 55.15L35.86 26.64L46.27 26.64L46.27 53.71Q46.27 62.99 45.42 66.82Q44.58 70.66 42.31 73.29Q40.04 75.93 36.25 77.49Q32.45 79.06 26.33 79.06L26.33 79.06Q18.95 79.06 15.13 77.35Q11.32 75.65 9.11 72.92Q6.89 70.20 6.19 67.21L6.19 67.21Q5.17 62.78 5.17 54.13L5.17 54.13ZM67.01 78.18L57.34 78.18L57.34 26.64L67.46 26.64L88.56 61.06L88.56 26.64L98.23 26.64L98.23 78.18L87.79 78.18L67.01 44.57L67.01 78.18ZM107.12 52.73L107.12 52.73Q107.12 44.85 109.48 39.51L109.48 39.51Q111.23 35.57 114.28 32.44Q117.32 29.31 120.94 27.80L120.94 27.80Q125.75 25.76 132.05 25.76L132.05 25.76Q143.44 25.76 150.28 32.83Q157.11 39.89 157.11 52.48L157.11 52.48Q157.11 64.96 150.33 72.01Q143.54 79.06 132.19 79.06L132.19 79.06Q120.69 79.06 113.91 72.04Q107.12 65.03 107.12 52.73ZM117.84 52.38L117.84 52.38Q117.84 61.13 121.89 65.65Q125.93 70.16 132.15 70.16L132.15 70.16Q138.38 70.16 142.37 65.68Q146.36 61.20 146.36 52.23L146.36 52.23Q146.36 43.38 142.47 39.02Q138.59 34.66 132.15 34.66L132.15 34.66Q125.72 34.66 121.78 39.07Q117.84 43.48 117.84 52.38Z" />
  </defs>
  <g transform="rotate(345 80 55)">
    <use xlink:href="#text" fill="black" transform="scale(1 1.05)"/>
    <use xlink:href="#text" fill="yellow" stroke="black" transform="translate(4 0)" />
  </g>
</svg>
